<svg xmlns="http://www.w3.org/2000/svg" version="1.1" xmlns:xlink="http://www.w3.org/1999/xlink" xmlns:svgjs="http://svgjs.dev/svgjs" width="1000" height="1000" viewBox="0 0 1000 1000"><rect width="1000" height="1000" fill="#dedede"></rect><g transform="matrix(0.7,0,0,0.7,149.57575757575756,450.3265889962331)"><svg viewBox="0 0 396 56" data-background-color="#dedede" preserveAspectRatio="xMidYMid meet" height="141" width="1000" xmlns="http://www.w3.org/2000/svg" xmlns:xlink="http://www.w3.org/1999/xlink"><g id="tight-bounds" transform="matrix(1,0,0,1,0.2400000000000091,0.18381618691901735)"><svg viewBox="0 0 395.52 55.632436628866905" height="55.632436628866905" width="395.52"><g><svg viewBox="0 0 526.2219526029176 74.016508472139" height="55.632436628866905" width="395.52"><g transform="matrix(1,0,0,1,130.70195260291763,10.229488508088675)"><svg viewBox="0 0 395.52 53.557531455961644" height="53.557531455961644" width="395.52"><g id="textblocktransform"><svg viewBox="0 0 395.52 53.557531455961644" height="53.557531455961644" width="395.52" id="textblock"><g><svg viewBox="0 0 395.52 53.557531455961644" height="53.557531455961644" width="395.52"><g transform="matrix(1,0,0,1,0,0)"><svg width="395.52" viewBox="1 -33 250.3300018310547 33.900001525878906" height="53.557531455961644" data-palette-color="#374151"><path d="M23.55 0L7.8 0 7.8-0.5 9.85-1Q11.9-1.45 11.9-3.5L11.9-3.5 11.9-32 7.65-32Q5.8-32 5-31.03 4.2-30.05 3.3-28.35L3.3-28.35 1.5-24.85 1-24.85 1.25-33 30.1-33 30.3-24.85 29.8-24.85 28-28.35Q27.15-30.05 26.35-31.03 25.55-32 23.7-32L23.7-32 19.45-32 19.45-3.5Q19.45-1.45 21.5-1L21.5-1 23.55-0.5 23.55 0ZM45.25 0L32.45 0 32.45-0.5 33.5-0.85Q34.5-1.2 34.8-1.78 35.1-2.35 35.1-3.4L35.1-3.4 35.1-29.55Q35.1-30.55 34.82-31.13 34.55-31.7 33.6-32.05L33.6-32.05 32.45-32.5 32.45-33 46.75-33Q52.65-33 55.8-30.78 58.95-28.55 58.95-24.6L58.95-24.6Q58.95-22.4 57.3-20.2 55.65-18 52.1-16.8L52.1-16.8 59.05-3Q59.5-2.15 60.07-1.63 60.65-1.1 61.6-0.7L61.6-0.7 62.25-0.45 62.25 0 53.3 0 45.9-15.75 42.5-15.75 42.5-3.4Q42.5-2.45 42.8-1.85 43.1-1.25 44.05-0.95L44.05-0.95 45.25-0.5 45.25 0ZM42.5-32L42.5-16.75 44.9-16.75Q48.5-16.75 50.1-18.68 51.7-20.6 51.7-24.4L51.7-24.4Q51.7-28.25 50.2-30.13 48.7-32 45.15-32L45.15-32 42.5-32ZM88.8 0L63.85 0 63.85-0.5 65-0.95Q65.84-1.3 66.17-1.88 66.5-2.45 66.5-3.45L66.5-3.45 66.5-29.55Q66.5-30.55 66.22-31.13 65.95-31.7 65-32.05L65-32.05 63.85-32.5 63.85-33 87.8-33 88.09-25.3 87.59-25.3 85.45-30Q85-30.9 84.5-31.45 84-32 83-32L83-32 74-32 74-17.55 79.34-17.55Q80.34-17.55 80.87-18.07 81.4-18.6 81.8-19.5L81.8-19.5 82.8-21.5 83.3-21.5 83.3-12.5 82.8-12.5 81.8-14.6Q81.34-15.5 80.84-16.03 80.34-16.55 79.34-16.55L79.34-16.55 74-16.55 74-1 84.09-1Q85.09-1 85.65-1.53 86.2-2.05 86.55-3L86.55-3 88.59-7.7 89.09-7.7 88.8 0ZM99.84 0L92.24 0 92.24-0.5 93.89-1Q94.79-1.25 95.19-1.98 95.59-2.7 95.59-3.7L95.59-3.7 95.59-27.75Q95.04-28.95 94.72-29.55 94.39-30.15 93.99-30.58 93.59-31 92.89-31.65L92.89-31.65 92.04-32.5 92.04-33 100.89-33 117.49-10.35 117.49-29.2Q117.49-30.2 117.17-31 116.84-31.8 115.84-32.05L115.84-32.05 114.19-32.5 114.19-33 121.34-33 121.34-32.5 119.99-32.05Q119.09-31.75 118.89-31 118.69-30.25 118.69-29.25L118.69-29.25 118.69 0.15 115.89 0.15 96.79-26.1 96.79-3.7Q96.79-2.7 97.09-2 97.39-1.3 98.34-1L98.34-1 99.84-0.5 99.84 0ZM136.54 0L124.24 0 124.24-0.5 125.29-0.9Q126.89-1.55 126.89-3.45L126.89-3.45 126.89-29.55Q126.89-31.55 125.29-32.1L125.29-32.1 124.24-32.5 124.24-33 137.44-33Q142.74-33 146.57-31.03 150.39-29.05 152.47-25.38 154.54-21.7 154.54-16.55L154.54-16.55Q154.54-11.3 152.29-7.6 150.04-3.9 146.02-1.95 141.99 0 136.54 0L136.54 0ZM134.39-32L134.39-1 136.54-1Q140.14-1 142.34-2.43 144.54-3.85 145.57-7.23 146.59-10.6 146.59-16.5L146.59-16.5Q146.59-22.4 145.57-25.78 144.54-29.15 142.39-30.58 140.24-32 136.74-32L136.74-32 134.39-32ZM169.34 0L156.64 0 156.64-0.5 157.64-0.9Q158.64-1.25 158.96-1.85 159.29-2.45 159.29-3.4L159.29-3.4 159.29-29.55Q159.29-30.55 158.96-31.15 158.64-31.75 157.64-32.1L157.64-32.1 156.64-32.5 156.64-33 169.34-33 169.34-32.5 168.49-32.15Q167.54-31.8 167.19-31.23 166.84-30.65 166.84-29.65L166.84-29.65 166.84-17.5 178.79-17.5 178.79-29.65Q178.79-30.65 178.46-31.23 178.14-31.8 177.14-32.15L177.14-32.15 176.24-32.5 176.24-33 188.99-33 188.99-32.5 187.99-32.1Q187.04-31.75 186.69-31.15 186.34-30.55 186.34-29.55L186.34-29.55 186.34-3.4Q186.34-2.45 186.69-1.85 187.04-1.25 187.99-0.9L187.99-0.9 188.99-0.5 188.99 0 176.24 0 176.24-0.5 177.14-0.8Q178.14-1.2 178.46-1.78 178.79-2.35 178.79-3.35L178.79-3.35 178.79-16.5 166.84-16.5 166.84-3.35Q166.84-1.5 168.49-0.8L168.49-0.8 169.34-0.5 169.34 0ZM207.04 0.9L207.04 0.9Q203.24 0.9 200.31-0.45 197.39-1.8 195.76-4.73 194.14-7.65 194.14-12.45L194.14-12.45 194.14-29.7Q194.14-31.6 192.19-32.2L192.19-32.2 191.09-32.5 191.09-33 204.94-33 204.94-32.5 203.49-32.1Q201.64-31.65 201.64-29.6L201.64-29.6 201.64-11.15Q201.64-6.5 203.59-4.28 205.54-2.05 209.19-2.05L209.19-2.05Q212.99-2.05 215.21-4.4 217.44-6.75 217.44-11.05L217.44-11.05 217.44-29.4Q217.44-30.4 217.11-31.18 216.79-31.95 215.79-32.2L215.79-32.2 214.54-32.5 214.54-33 221.54-33 221.54-32.5 220.19-32.15Q219.24-31.95 218.94-31.2 218.64-30.45 218.64-29.45L218.64-29.45 218.64-11.15Q218.64-7.5 217.19-4.78 215.74-2.05 213.14-0.58 210.54 0.9 207.04 0.9ZM236.33 0L223.63 0 223.63-0.5 224.53-0.85Q225.53-1.25 225.91-1.85 226.28-2.45 226.28-3.45L226.28-3.45 226.28-29.55Q226.28-30.6 225.91-31.2 225.53-31.8 224.53-32.15L224.53-32.15 223.63-32.5 223.63-33 237.98-33Q244.08-33 246.78-30.78 249.48-28.55 249.48-25.15L249.48-25.15Q249.48-22.6 247.51-20.53 245.53-18.45 240.73-17.6L240.73-17.6Q246.23-17 248.78-14.73 251.33-12.45 251.33-9.2L251.33-9.2Q251.33-7.6 250.63-5.98 249.93-4.35 248.26-3 246.58-1.65 243.68-0.83 240.78 0 236.33 0L236.33 0ZM233.68-32L233.68-17.65 235.83-17.65Q239.18-17.65 240.66-19.2 242.13-20.75 242.13-24.6L242.13-24.6Q242.13-28.6 240.78-30.3 239.43-32 236.38-32L236.38-32 233.68-32ZM233.68-16.65L233.68-1 236.18-1Q239.93-1 241.76-3 243.58-5 243.58-9.25L243.58-9.25Q243.58-13.25 241.83-14.95 240.08-16.65 236.08-16.65L236.08-16.65 233.68-16.65Z" opacity="1" transform="matrix(1,0,0,1,0,0)" fill="#374151" class="wordmark-text-0" data-fill-palette-color="primary" id="text-0"></path></svg></g></svg></g></svg></g></svg></g><g><svg viewBox="0 0 118.05830480692002 74.016508472139" height="74.016508472139" width="118.05830480692002"><g><svg xmlns="http://www.w3.org/2000/svg" xmlns:xlink="http://www.w3.org/1999/xlink" version="1.0" x="0" y="0" viewBox="5.009712219238281 20.233325958251953 90.22335052490234 56.5654182434082" enable-background="new 0 0 100 100" xml:space="preserve" height="74.016508472139" width="118.05830480692002" class="icon-icon-0" data-fill-palette-color="accent" id="icon-0"><path d="M22.942 61.743l-3.531 15.056h61.361l-3.436-15.056H22.942zM28.574 73.806c-1.248 0-2.261-1.012-2.26-2.26s1.012-2.261 2.26-2.261 2.261 1.012 2.261 2.261S29.823 73.806 28.574 73.806zM37.549 72.3c-1.06 0-1.92-0.86-1.92-1.92s0.86-1.92 1.92-1.92c1.06 0 1.92 0.86 1.92 1.92S38.609 72.3 37.549 72.3zM62.825 72.3c-1.06 0-1.92-0.86-1.92-1.92s0.86-1.92 1.92-1.92c1.06 0 1.92 0.86 1.92 1.92S63.886 72.3 62.825 72.3zM71.668 73.806c-1.249 0-2.261-1.012-2.26-2.26s1.012-2.261 2.26-2.261c1.249 0 2.261 1.012 2.261 2.261S72.917 73.806 71.668 73.806z" fill="#374151" data-fill-palette-color="accent"></path><path d="M94.63 57.157V22.645c0-1.332-1.08-2.411-2.411-2.412H8.024c-1.332 0-2.411 1.08-2.411 2.412v34.512l-0.603 0.602v14.368l0.603 0.505v1.755c0 1.332 1.08 2.411 2.411 2.412h9.942l3.733-15.918c0.074-0.319 0.358-0.544 0.685-0.544h55.51c0.327 0 0.611 0.226 0.685 0.544l3.635 15.918h10.005c1.332 0 2.411-1.08 2.411-2.412v-1.755l0.603-0.505V57.759L94.63 57.157zM7.46 54.494V38.318H17.509c-1.118 1.938-1.847 4.141-2.068 6.515-0.326 3.505 0.505 6.85 2.176 9.661H7.46zM19.277 54.494c-1.892-2.794-2.752-6.127-2.436-9.531 0.223-2.397 1.028-4.67 2.321-6.645h8.21c-2.956 1.448-4.992 4.486-4.993 8 0 3.664 2.214 6.81 5.377 8.176H19.277zM31.434 51.067l0.083-0.89-1.3-0.121-0.083 0.89c-1.259-0.292-2.312-1.068-2.975-2.108l0.83-0.381-0.527-1.196-0.85 0.391c-0.177-0.582-0.247-1.206-0.187-1.849 0.06-0.643 0.244-1.244 0.525-1.782l0.799 0.565 0.77-1.055-0.813-0.576c0.843-0.9 2.022-1.469 3.313-1.522l-0.094 1.014 1.3 0.121 0.094-1.014c1.259 0.291 2.312 1.068 2.975 2.108L34.39 44.077l0.562 1.18 0.889-0.409c0.177 0.582 0.247 1.206 0.188 1.849-0.06 0.643-0.244 1.244-0.526 1.782l-0.763-0.54-0.738 1.077 0.745 0.528C33.904 50.444 32.726 51.013 31.434 51.067zM34.811 54.494c3.162-1.366 5.376-4.512 5.376-8.176 0-3.514-2.036-6.551-4.992-8h8.426c1.753 2.673 2.65 5.932 2.332 9.354-0.23 2.469-1.075 4.806-2.437 6.822H34.811zM45.18 54.494c1.177-1.981 1.946-4.245 2.174-6.691 0.319-3.432-0.473-6.71-2.075-9.485h9.907c-1.118 1.938-1.847 4.141-2.069 6.515-0.326 3.505 0.505 6.85 2.177 9.661H45.18zM56.953 54.494c-1.892-2.794-2.752-6.127-2.435-9.531 0.223-2.397 1.028-4.67 2.321-6.645h8.209c-2.956 1.448-4.992 4.486-4.992 8 0 3.664 2.214 6.81 5.376 8.176H56.953zM69.111 51.067l0.083-0.89-1.301-0.121-0.082 0.89c-1.259-0.292-2.312-1.068-2.976-2.108l0.831-0.381-0.527-1.196-0.85 0.391c-0.177-0.582-0.247-1.206-0.188-1.849 0.06-0.643 0.244-1.244 0.526-1.782l0.799 0.565 0.769-1.055-0.812-0.576c0.843-0.9 2.022-1.469 3.313-1.522l-0.095 1.014 1.301 0.121 0.094-1.014c1.259 0.291 2.312 1.068 2.975 2.108L72.067 44.077l0.562 1.18 0.889-0.409c0.177 0.582 0.247 1.206 0.187 1.849-0.06 0.643-0.244 1.244-0.525 1.782l-0.763-0.54-0.739 1.077 0.746 0.528C71.581 50.444 70.402 51.013 69.111 51.067zM72.487 54.494c3.162-1.366 5.376-4.512 5.377-8.176 0-3.514-2.036-6.551-4.993-8h8.427c1.753 2.673 2.65 5.932 2.332 9.354-0.23 2.469-1.075 4.806-2.437 6.822H72.487zM91.956 54.494h-9.1c1.177-1.981 1.946-4.245 2.175-6.691 0.319-3.432-0.473-6.71-2.075-9.485h9V54.494z" fill="#374151" data-fill-palette-color="accent"></path></svg></g></svg></g></svg></g><defs></defs></svg><rect width="395.52" height="55.632436628866905" fill="none" stroke="none" visibility="hidden"></rect></g></svg></g></svg>